<svg width="72" height="72" viewBox="0 0 72 72" fill="none" xmlns="http://www.w3.org/2000/svg">
<path d="M33.0203 7.60468C33.9096 7.11079 34.9101 6.85162 35.9274 6.85162C36.9447 6.85162 37.9452 7.11079 38.8345 7.60468L61.334 20.1014C61.8005 20.3608 62.1891 20.7402 62.4597 21.2003C62.7303 21.6603 62.8729 22.1844 62.8729 22.7181V47.3733C62.8727 48.4411 62.5869 49.4894 62.0452 50.4095C61.5035 51.3297 60.7256 52.0883 59.7921 52.6067L38.8345 64.2532C37.9452 64.7471 36.9447 65.0062 35.9274 65.0062C34.9101 65.0062 33.9096 64.7471 33.0203 64.2532L12.0626 52.6067C11.1296 52.0885 10.352 51.3304 9.81033 50.4108C9.26867 49.4912 8.98264 48.4436 8.98186 47.3763V22.7181C8.98184 22.1844 9.1245 21.6603 9.39507 21.2003C9.66564 20.7402 10.0543 20.3608 10.5207 20.1014L33.0233 7.60468H33.0203Z" stroke="#DCB47A" stroke-width="3.42165" stroke-linecap="round" stroke-linejoin="round"/>
<path d="M22.4546 13.4728L49.4001 28.4425V38.9213M17.9637 36.9094L26.9455 41.9153" stroke="#DCB47A" stroke-width="3.42165" stroke-linecap="round" stroke-linejoin="round"/>
<path d="M8.98184 20.9577L35.9274 35.9274M35.9274 35.9274L62.8729 20.9577M35.9274 35.9274V65.8669" stroke="#DCB47A" stroke-width="3.42165" stroke-linejoin="round"/>
</svg>
