<svg width="73" height="72" viewBox="0 0 73 72" fill="none" xmlns="http://www.w3.org/2000/svg">
<path d="M36.5285 6.16154C36.8993 5.6976 37.3584 5.3118 37.8792 5.02649C38.4001 4.74118 38.9724 4.56201 39.563 4.49936C40.1536 4.43671 40.7507 4.49182 41.3198 4.66151C41.889 4.83119 42.4188 5.11207 42.8787 5.4879L57.528 17.4517C58.3337 18.1095 58.886 19.0265 59.0908 20.0462C59.2955 21.0659 59.14 22.1251 58.6508 23.0429C57.37 22.6515 56.038 22.4532 54.6988 22.4546H53.3515L54.6898 20.9277L46.9744 14.6269L40.6107 22.4591H34.8219L43.4939 11.7887L40.0359 8.96387L29.2667 22.4546H23.5183L36.5285 6.16154ZM47.9624 44.9092C47.3669 44.9092 46.7957 45.1458 46.3746 45.5669C45.9535 45.988 45.7169 46.5591 45.7169 47.1547C45.7169 47.7502 45.9535 48.3213 46.3746 48.7424C46.7957 49.1635 47.3669 49.4001 47.9624 49.4001H52.4533C53.0488 49.4001 53.62 49.1635 54.0411 48.7424C54.4622 48.3213 54.6988 47.7502 54.6988 47.1547C54.6988 46.5591 54.4622 45.988 54.0411 45.5669C53.62 45.1458 53.0488 44.9092 52.4533 44.9092H47.9624ZM14.2805 24.7001C14.2805 24.1045 14.517 23.5334 14.9382 23.1123C15.3593 22.6912 15.9304 22.4546 16.5259 22.4546H19.0319L22.6022 17.9637H16.5259C14.7393 17.9637 13.0259 18.6734 11.7626 19.9367C10.4993 21.2 9.78955 22.9135 9.78955 24.7001V51.6456C9.78955 54.6232 10.9724 57.479 13.078 59.5845C15.1835 61.69 18.0392 62.8729 21.0169 62.8729H54.6988C57.0809 62.8729 59.3655 61.9266 61.0499 60.2422C62.7343 58.5577 63.6806 56.2732 63.6806 53.891V35.9274C63.6806 33.5452 62.7343 31.2607 61.0499 29.5762C59.3655 27.8918 57.0809 26.9455 54.6988 26.9455H16.5259C15.9304 26.9455 15.3593 26.7089 14.9382 26.2878C14.517 25.8667 14.2805 25.2956 14.2805 24.7001ZM14.2805 51.6456V31.0547C14.9811 31.3017 15.74 31.4364 16.5259 31.4364H54.6988C55.8898 31.4364 57.0321 31.9096 57.8743 32.7518C58.7165 33.594 59.1897 34.7363 59.1897 35.9274V53.891C59.1897 55.0821 58.7165 56.2244 57.8743 57.0666C57.0321 57.9088 55.8898 58.382 54.6988 58.382H21.0169C19.2303 58.382 17.5168 57.6722 16.2535 56.4089C14.9902 55.1456 14.2805 53.4322 14.2805 51.6456Z" fill="#DCB47A"/>
</svg>
