<svg width="73" height="72" viewBox="0 0 73 72" fill="none" xmlns="http://www.w3.org/2000/svg">
<path d="M60.3088 24.8069H63.4883C65.0764 24.8069 66.5995 25.4378 67.7224 26.5608C68.8454 27.6837 69.4762 29.2068 69.4762 30.7948V42.7706C69.4762 44.3587 68.8454 45.8818 67.7224 47.0047C66.5995 48.1277 65.0764 48.7585 63.4883 48.7585H60.3088C59.5789 54.5467 56.7617 59.8696 52.386 63.7283C48.0103 67.5869 42.3768 69.7161 36.5428 69.7162V63.7283C41.3071 63.7283 45.8762 61.8357 49.245 58.4668C52.6139 55.098 54.5065 50.5288 54.5065 45.7646V27.8009C54.5065 23.0366 52.6139 18.4675 49.245 15.0987C45.8762 11.7298 41.3071 9.83721 36.5428 9.83721C31.7785 9.83721 27.2094 11.7298 23.8406 15.0987C20.4717 18.4675 18.5791 23.0366 18.5791 27.8009V48.7585H9.59727C8.00918 48.7585 6.48614 48.1277 5.36319 47.0047C4.24024 45.8818 3.60938 44.3587 3.60938 42.7706V30.7948C3.60938 29.2068 4.24024 27.6837 5.36319 26.5608C6.48614 25.4378 8.00918 24.8069 9.59727 24.8069H12.7768C13.5075 19.0193 16.3249 13.6972 20.7005 9.83923C25.0762 5.98124 30.7092 3.85254 36.5428 3.85254C42.3763 3.85254 48.0094 5.98124 52.385 9.83923C56.7607 13.6972 59.5781 19.0193 60.3088 24.8069ZM9.59727 30.7948V42.7706H12.5912V30.7948H9.59727ZM60.4944 30.7948V42.7706H63.4883V30.7948H60.4944ZM23.8485 48.1148L27.022 43.0371C29.8755 44.8246 33.1757 45.77 36.5428 45.7646C39.9099 45.77 43.2101 44.8246 46.0636 43.0371L49.2371 48.1148C45.4326 50.4984 41.0323 51.7594 36.5428 51.7525C32.0532 51.7594 27.653 50.4984 23.8485 48.1148Z" fill="#DCB47A"/>
</svg>
