<svg width="40" height="40" viewBox="0 0 40 40" fill="none" xmlns="http://www.w3.org/2000/svg">
<path d="M3.94699 4.2052H6.75659C8.50048 4.2052 9.87297 5.70688 9.72765 7.43462L8.38744 23.5171C8.16138 26.1491 10.2443 28.4097 12.8925 28.4097H30.0891C32.4143 28.4097 34.4488 26.5043 34.6264 24.1953L35.4984 12.085C35.6921 9.40457 33.6576 7.2247 30.961 7.2247H10.1152" stroke="#292929" stroke-width="2.42206" stroke-miterlimit="10" stroke-linecap="round" stroke-linejoin="round"/>
<path d="M26.9566 36.4994C28.0713 36.4994 28.975 35.5958 28.975 34.481C28.975 33.3663 28.0713 32.4626 26.9566 32.4626C25.8419 32.4626 24.9382 33.3663 24.9382 34.481C24.9382 35.5958 25.8419 36.4994 26.9566 36.4994Z" stroke="#292929" stroke-width="2.42206" stroke-miterlimit="10" stroke-linecap="round" stroke-linejoin="round"/>
<path d="M14.0389 36.4994C15.1536 36.4994 16.0573 35.5958 16.0573 34.481C16.0573 33.3663 15.1536 32.4626 14.0389 32.4626C12.9242 32.4626 12.0205 33.3663 12.0205 34.481C12.0205 35.5958 12.9242 36.4994 14.0389 36.4994Z" stroke="#292929" stroke-width="2.42206" stroke-miterlimit="10" stroke-linecap="round" stroke-linejoin="round"/>
<path d="M15.2499 13.8934H34.6264" stroke="#292929" stroke-width="2.42206" stroke-miterlimit="10" stroke-linecap="round" stroke-linejoin="round"/>
</svg>
